# xmcd
#
# Track frame offsets: 
#        150
#        13236
#        26575
#        39943
#        53105
#        65705
#        79220
#        90623
#        103613
#        114583
#        127412
#        139943
#
# Disc length: 2036 seconds
#
# Revision: 0
# Processed by: cddbd v1.5.2PL0 Copyright (c) Steve Scherf et al.
# Submitted via: ExactAudioCopyFreeDBPlugin 1.0
#
DISCID=a907f20c
DTITLE=Various Artist - Country Legends Back To Back Volume 1: Roy Acuff and Ha
DTITLE=nk Snow
DYEAR=2014
DGENRE=Country
TTITLE0=Hank Snow - I'm Movin' On
TTITLE1=Roy Acuff - Wabash Cannonball
TTITLE2=Hank Snow - I Don't Hurt Anymore
TTITLE3=Roy Acuff - Night Train To Memphis
TTITLE4=Hank Snow - The Golden Rocket
TTITLE5=Roy Acuff - Great Speckled Bird
TTITLE6=Hank Snow - Now And Then There's A Fool Such As I
TTITLE7=Roy Acuff - The Precious Jewel
TTITLE8=Hank Snow - Music Makin' Mama From Memphis
TTITLE9=Roy Acuff - Wreck On The Highway
TTITLE10=Hank Snow - The Rumba Boogie
TTITLE11=Roy Acuff - Freight Train Blues
EXTD=
EXTT0=
EXTT1=
EXTT2=
EXTT3=
EXTT4=
EXTT5=
EXTT6=
EXTT7=
EXTT8=
EXTT9=
EXTT10=
EXTT11=
PLAYORDER=
